<svg width="1282" height="687" viewBox="0 0 1282 687" fill="none" xmlns="http://www.w3.org/2000/svg">
<path d="M0.309339 173.198L0.00224552 3.58729L1276.66 1.27579L1277.55 491.262C1214.9 465.463 1063.95 365.383 961.302 171.458C858.658 -22.4668 722.671 53.3192 667.508 115.453C612.362 187.009 453.678 307.124 260.114 215.13C66.5494 123.137 6.25898 148.845 0.309339 173.198Z" fill="#51EDC6" fill-opacity="0.76"/>
<path d="M0.430089 239.831L0.00235183 3.58735L1276.66 1.27585L1277.9 683.757C1215.23 647.777 1064.21 508.273 961.423 238.091C858.641 -32.0914 722.707 73.3708 667.588 159.875C612.493 259.503 453.895 426.693 260.265 298.421C66.6346 170.15 6.36242 205.915 0.430089 239.831Z" fill="#7CE9FE" fill-opacity="0.15"/>
<path d="M0.430089 239.831L0.00235183 3.58735L1276.66 1.27585L1277.9 683.757C1215.23 647.777 1064.21 508.273 961.423 238.091C858.641 -32.0914 722.707 73.3708 667.588 159.875C612.493 259.503 453.895 426.693 260.265 298.421C66.6346 170.15 6.36242 205.915 0.430089 239.831Z" fill="url(#paint0_linear)"/>
<path d="M4.09609 237.56L3.67015 2.3115L1280.33 1.11075e-06L1281.56 679.607C1218.9 643.779 1067.87 504.864 965.089 235.82C862.309 -33.2236 726.374 71.7956 671.255 157.936C616.159 257.145 457.56 423.631 263.93 295.902C70.3011 168.172 10.0287 203.787 4.09609 237.56Z" fill="#7CE9FE" fill-opacity="0.49"/>
<path d="M4.09609 237.56L3.67015 2.3115L1280.33 1.11075e-06L1281.56 679.607C1218.9 643.779 1067.87 504.864 965.089 235.82C862.309 -33.2236 726.374 71.7956 671.255 157.936C616.159 257.145 457.56 423.631 263.93 295.902C70.3011 168.172 10.0287 203.787 4.09609 237.56Z" fill="url(#paint1_linear)"/>
<defs>
<linearGradient id="paint0_linear" x1="639.569" y1="684.913" x2="638.333" y2="2.4316" gradientUnits="userSpaceOnUse">
<stop stop-color="white"/>
<stop offset="1" stop-color="white" stop-opacity="0"/>
</linearGradient>
<linearGradient id="paint1_linear" x1="643.232" y1="680.762" x2="642.001" y2="1.15575" gradientUnits="userSpaceOnUse">
<stop stop-color="white"/>
<stop offset="1" stop-color="white" stop-opacity="0"/>
</linearGradient>
</defs>
</svg>
